# xmcd CD database file
#
# Track frame offsets:
#	183
#	10175
#	31530
#	47450
#	77420
#	91940
#	114045
#	134763
#	143705
#	150828
#	166953
#	182318
#	198003
#	210910
#	225918
#	242823
#
# Disc length: 3366 seconds
#
# Revision: 1
# Processed by: cddbd v1.5PL3 Copyright (c) Steve Scherf et al.
# Submitted via: CDex 1.50beta10
#
DISCID=a30d2410
DTITLE=Memphis Slim - Steppin' Out - Live at Ronnnie Scott's
DYEAR=1993
DGENRE=Blues
TTITLE0=Health Shaking
TTITLE1=Mother Earth
TTITLE2=Rock This House Tonight
TTITLE3=If You See Kay
TTITLE4=Feel So Good
TTITLE5=Tribute to Gaillard
TTITLE6=Four Hundred Years
TTITLE7=Steppin' Out
TTITLE8=Baby Please Come Home
TTITLE9=Where Do I Go From Here
TTITLE10=Didn't We
TTITLE11=Christina
TTITLE12=Animal
TTITLE13=Beer Drinking Woman
TTITLE14=What is This World Coming To?
TTITLE15=Bye Bye Blues
EXTD=YEAR: 1993
EXTT0=
EXTT1=
EXTT2=
EXTT3=
EXTT4=
EXTT5=
EXTT6=
EXTT7=
EXTT8=
EXTT9=
EXTT10=
EXTT11=
EXTT12=
EXTT13=
EXTT14=
EXTT15=
PLAYORDER=
